<?xml version="1.0" encoding="iso-8859-1"?>
<!-- Generator: Adobe Illustrator 18.1.1, SVG Export Plug-In . SVG Version: 6.00 Build 0)  -->
<svg version="1.1" id="Capa_1" xmlns="http://www.w3.org/2000/svg" xmlns:xlink="http://www.w3.org/1999/xlink" x="0px" y="0px"
	 viewBox="0 0 310.201 310.201" style="enable-background:new 0 0 310.201 310.201;" xml:space="preserve">
<g>
	<path style="fill:#010002;" d="M155.479,283.164c-69.821,0-126.404-57.235-126.404-127.035S85.658,29.725,155.479,29.725
		c69.805,0,126.382,56.61,126.382,126.404C281.861,225.929,225.284,283.164,155.479,283.164z M155.479,55.006
		c-55.843,0-101.123,45.269-101.123,101.123c0,55.859,45.28,101.754,101.123,101.754c55.832,0,101.101-45.895,101.101-101.754
		C256.58,100.275,211.311,55.006,155.479,55.006z M160.532,171.603c0,0-2.263,0.071-5.058,0.163
		c-2.796,0.092-8.246-0.984-11.417-3.546c-2.023-1.626-3.742-3.715-3.742-6.097V90.719c0-5.771,4.335-10.432,10.1-10.432
		c5.765,0,10.111,4.656,10.111,10.432v43.795c0,9.317,7.555,16.872,16.877,16.872h33.679c5.771,0,10.438,4.041,10.438,9.807
		c0,5.744-4.672,10.405-10.438,10.405h-50.551V171.603z"/>
	<g>
		<path style="fill:#010002;" d="M300.022,130.479c-4.591,0-8.757-3.127-9.872-7.789c-7.37-30.627-25.275-58.122-50.42-77.425
			c-4.455-3.416-5.292-9.801-1.871-14.256c3.416-4.449,9.801-5.287,14.25-1.871c28.822,22.121,49.354,53.656,57.806,88.793
			c1.316,5.455-2.045,10.949-7.506,12.26C301.605,130.392,300.805,130.479,300.022,130.479z"/>
	</g>
	<g>
		<path style="fill:#010002;" d="M10.174,133.753c-0.713,0-1.436-0.076-2.159-0.234c-5.488-1.191-8.969-6.598-7.783-12.086
			C7.797,86.52,27.297,54.783,55.134,32.07c4.346-3.541,10.748-2.899,14.299,1.452c3.552,4.351,2.899,10.753-1.452,14.299
			c-24.285,19.815-41.288,47.483-47.886,77.915C19.062,130.5,14.852,133.753,10.174,133.753z"/>
	</g>
</g>
<g>
</g>
<g>
</g>
<g>
</g>
<g>
</g>
<g>
</g>
<g>
</g>
<g>
</g>
<g>
</g>
<g>
</g>
<g>
</g>
<g>
</g>
<g>
</g>
<g>
</g>
<g>
</g>
<g>
</g>
</svg>
